<?xml version="1.0" encoding="utf-8"?>
<svg xmlns="http://www.w3.org/2000/svg"
    xmlns:xlink="http://www.w3.org/1999/xlink"
    width="686" height="520" viewBox="-10 -10 686 520">
<defs>
<style type="text/css"><![CDATA[
line {
    stroke: #000000;
    stroke-linecap: square;
    stroke-width: 7;
}
]]></style>
</defs>
<line x1="33.3" y1="0.0" x2="33.3" y2="33.333333333333336"/>
<line x1="33.3" y1="33.333333333333336" x2="33.3" y2="66.66666666666667"/>
<line x1="0.0" y1="100.0" x2="33.3" y2="100.0"/>
<line x1="33.3" y1="133.33333333333334" x2="33.3" y2="166.66666666666669"/>
<line x1="33.3" y1="166.66666666666669" x2="33.3" y2="200.0"/>
<line x1="33.3" y1="200.0" x2="33.3" y2="233.33333333333334"/>
<line x1="33.3" y1="233.33333333333334" x2="33.3" y2="266.6666666666667"/>
<line x1="33.3" y1="300.0" x2="33.3" y2="333.33333333333337"/>
<line x1="33.3" y1="333.33333333333337" x2="33.3" y2="366.6666666666667"/>
<line x1="33.3" y1="366.6666666666667" x2="33.3" y2="400.0"/>
<line x1="33.3" y1="400.0" x2="33.3" y2="433.33333333333337"/>
<line x1="0.0" y1="466.6666666666667" x2="33.3" y2="466.6666666666667"/>
<line x1="0.0" y1="500.00000000000006" x2="33.3" y2="500.00000000000006"/>
<line x1="66.6" y1="33.333333333333336" x2="66.6" y2="66.66666666666667"/>
<line x1="33.3" y1="100.0" x2="66.6" y2="100.0"/>
<line x1="66.6" y1="66.66666666666667" x2="66.6" y2="100.0"/>
<line x1="66.6" y1="133.33333333333334" x2="66.6" y2="166.66666666666669"/>
<line x1="33.3" y1="200.0" x2="66.6" y2="200.0"/>
<line x1="33.3" y1="266.6666666666667" x2="66.6" y2="266.6666666666667"/>
<line x1="33.3" y1="300.0" x2="66.6" y2="300.0"/>
<line x1="66.6" y1="266.6666666666667" x2="66.6" y2="300.0"/>
<line x1="33.3" y1="366.6666666666667" x2="66.6" y2="366.6666666666667"/>
<line x1="66.6" y1="366.6666666666667" x2="66.6" y2="400.0"/>
<line x1="33.3" y1="433.33333333333337" x2="66.6" y2="433.33333333333337"/>
<line x1="66.6" y1="433.33333333333337" x2="66.6" y2="466.6666666666667"/>
<line x1="33.3" y1="500.00000000000006" x2="66.6" y2="500.00000000000006"/>
<line x1="66.6" y1="33.333333333333336" x2="99.89999999999999" y2="33.333333333333336"/>
<line x1="66.6" y1="100.0" x2="99.89999999999999" y2="100.0"/>
<line x1="99.89999999999999" y1="66.66666666666667" x2="99.89999999999999" y2="100.0"/>
<line x1="66.6" y1="133.33333333333334" x2="99.89999999999999" y2="133.33333333333334"/>
<line x1="66.6" y1="166.66666666666669" x2="99.89999999999999" y2="166.66666666666669"/>
<line x1="99.89999999999999" y1="166.66666666666669" x2="99.89999999999999" y2="200.0"/>
<line x1="66.6" y1="233.33333333333334" x2="99.89999999999999" y2="233.33333333333334"/>
<line x1="99.89999999999999" y1="200.0" x2="99.89999999999999" y2="233.33333333333334"/>
<line x1="99.89999999999999" y1="233.33333333333334" x2="99.89999999999999" y2="266.6666666666667"/>
<line x1="99.89999999999999" y1="266.6666666666667" x2="99.89999999999999" y2="300.0"/>
<line x1="66.6" y1="333.33333333333337" x2="99.89999999999999" y2="333.33333333333337"/>
<line x1="99.89999999999999" y1="333.33333333333337" x2="99.89999999999999" y2="366.6666666666667"/>
<line x1="66.6" y1="400.0" x2="99.89999999999999" y2="400.0"/>
<line x1="66.6" y1="433.33333333333337" x2="99.89999999999999" y2="433.33333333333337"/>
<line x1="66.6" y1="500.00000000000006" x2="99.89999999999999" y2="500.00000000000006"/>
<line x1="99.89999999999999" y1="466.6666666666667" x2="99.89999999999999" y2="500.00000000000006"/>
<line x1="99.89999999999999" y1="33.333333333333336" x2="133.2" y2="33.333333333333336"/>
<line x1="133.2" y1="66.66666666666667" x2="133.2" y2="100.0"/>
<line x1="133.2" y1="100.0" x2="133.2" y2="133.33333333333334"/>
<line x1="133.2" y1="133.33333333333334" x2="133.2" y2="166.66666666666669"/>
<line x1="99.89999999999999" y1="200.0" x2="133.2" y2="200.0"/>
<line x1="133.2" y1="166.66666666666669" x2="133.2" y2="200.0"/>
<line x1="133.2" y1="233.33333333333334" x2="133.2" y2="266.6666666666667"/>
<line x1="99.89999999999999" y1="300.0" x2="133.2" y2="300.0"/>
<line x1="99.89999999999999" y1="366.6666666666667" x2="133.2" y2="366.6666666666667"/>
<line x1="133.2" y1="333.33333333333337" x2="133.2" y2="366.6666666666667"/>
<line x1="99.89999999999999" y1="400.0" x2="133.2" y2="400.0"/>
<line x1="99.89999999999999" y1="466.6666666666667" x2="133.2" y2="466.6666666666667"/>
<line x1="133.2" y1="433.33333333333337" x2="133.2" y2="466.6666666666667"/>
<line x1="99.89999999999999" y1="500.00000000000006" x2="133.2" y2="500.00000000000006"/>
<line x1="133.2" y1="33.333333333333336" x2="166.5" y2="33.333333333333336"/>
<line x1="166.5" y1="33.333333333333336" x2="166.5" y2="66.66666666666667"/>
<line x1="133.2" y1="100.0" x2="166.5" y2="100.0"/>
<line x1="166.5" y1="133.33333333333334" x2="166.5" y2="166.66666666666669"/>
<line x1="166.5" y1="166.66666666666669" x2="166.5" y2="200.0"/>
<line x1="133.2" y1="233.33333333333334" x2="166.5" y2="233.33333333333334"/>
<line x1="166.5" y1="200.0" x2="166.5" y2="233.33333333333334"/>
<line x1="133.2" y1="300.0" x2="166.5" y2="300.0"/>
<line x1="166.5" y1="266.6666666666667" x2="166.5" y2="300.0"/>
<line x1="133.2" y1="333.33333333333337" x2="166.5" y2="333.33333333333337"/>
<line x1="133.2" y1="400.0" x2="166.5" y2="400.0"/>
<line x1="166.5" y1="366.6666666666667" x2="166.5" y2="400.0"/>
<line x1="166.5" y1="400.0" x2="166.5" y2="433.33333333333337"/>
<line x1="166.5" y1="433.33333333333337" x2="166.5" y2="466.6666666666667"/>
<line x1="133.2" y1="500.00000000000006" x2="166.5" y2="500.00000000000006"/>
<line x1="199.79999999999998" y1="0.0" x2="199.79999999999998" y2="33.333333333333336"/>
<line x1="166.5" y1="66.66666666666667" x2="199.79999999999998" y2="66.66666666666667"/>
<line x1="166.5" y1="100.0" x2="199.79999999999998" y2="100.0"/>
<line x1="166.5" y1="133.33333333333334" x2="199.79999999999998" y2="133.33333333333334"/>
<line x1="166.5" y1="166.66666666666669" x2="199.79999999999998" y2="166.66666666666669"/>
<line x1="166.5" y1="233.33333333333334" x2="199.79999999999998" y2="233.33333333333334"/>
<line x1="199.79999999999998" y1="233.33333333333334" x2="199.79999999999998" y2="266.6666666666667"/>
<line x1="166.5" y1="300.0" x2="199.79999999999998" y2="300.0"/>
<line x1="166.5" y1="333.33333333333337" x2="199.79999999999998" y2="333.33333333333337"/>
<line x1="199.79999999999998" y1="300.0" x2="199.79999999999998" y2="333.33333333333337"/>
<line x1="166.5" y1="366.6666666666667" x2="199.79999999999998" y2="366.6666666666667"/>
<line x1="199.79999999999998" y1="400.0" x2="199.79999999999998" y2="433.33333333333337"/>
<line x1="199.79999999999998" y1="433.33333333333337" x2="199.79999999999998" y2="466.6666666666667"/>
<line x1="166.5" y1="500.00000000000006" x2="199.79999999999998" y2="500.00000000000006"/>
<line x1="199.79999999999998" y1="466.6666666666667" x2="199.79999999999998" y2="500.00000000000006"/>
<line x1="199.79999999999998" y1="66.66666666666667" x2="233.09999999999997" y2="66.66666666666667"/>
<line x1="233.09999999999997" y1="33.333333333333336" x2="233.09999999999997" y2="66.66666666666667"/>
<line x1="199.79999999999998" y1="100.0" x2="233.09999999999997" y2="100.0"/>
<line x1="233.09999999999997" y1="66.66666666666667" x2="233.09999999999997" y2="100.0"/>
<line x1="199.79999999999998" y1="133.33333333333334" x2="233.09999999999997" y2="133.33333333333334"/>
<line x1="199.79999999999998" y1="200.0" x2="233.09999999999997" y2="200.0"/>
<line x1="233.09999999999997" y1="166.66666666666669" x2="233.09999999999997" y2="200.0"/>
<line x1="233.09999999999997" y1="200.0" x2="233.09999999999997" y2="233.33333333333334"/>
<line x1="199.79999999999998" y1="266.6666666666667" x2="233.09999999999997" y2="266.6666666666667"/>
<line x1="233.09999999999997" y1="266.6666666666667" x2="233.09999999999997" y2="300.0"/>
<line x1="199.79999999999998" y1="333.33333333333337" x2="233.09999999999997" y2="333.33333333333337"/>
<line x1="199.79999999999998" y1="366.6666666666667" x2="233.09999999999997" y2="366.6666666666667"/>
<line x1="233.09999999999997" y1="366.6666666666667" x2="233.09999999999997" y2="400.0"/>
<line x1="199.79999999999998" y1="433.33333333333337" x2="233.09999999999997" y2="433.33333333333337"/>
<line x1="233.09999999999997" y1="433.33333333333337" x2="233.09999999999997" y2="466.6666666666667"/>
<line x1="199.79999999999998" y1="500.00000000000006" x2="233.09999999999997" y2="500.00000000000006"/>
<line x1="266.4" y1="0.0" x2="266.4" y2="33.333333333333336"/>
<line x1="266.4" y1="33.333333333333336" x2="266.4" y2="66.66666666666667"/>
<line x1="233.09999999999997" y1="100.0" x2="266.4" y2="100.0"/>
<line x1="233.09999999999997" y1="133.33333333333334" x2="266.4" y2="133.33333333333334"/>
<line x1="233.09999999999997" y1="166.66666666666669" x2="266.4" y2="166.66666666666669"/>
<line x1="233.09999999999997" y1="200.0" x2="266.4" y2="200.0"/>
<line x1="233.09999999999997" y1="266.6666666666667" x2="266.4" y2="266.6666666666667"/>
<line x1="266.4" y1="233.33333333333334" x2="266.4" y2="266.6666666666667"/>
<line x1="233.09999999999997" y1="333.33333333333337" x2="266.4" y2="333.33333333333337"/>
<line x1="266.4" y1="300.0" x2="266.4" y2="333.33333333333337"/>
<line x1="266.4" y1="333.33333333333337" x2="266.4" y2="366.6666666666667"/>
<line x1="233.09999999999997" y1="400.0" x2="266.4" y2="400.0"/>
<line x1="266.4" y1="400.0" x2="266.4" y2="433.33333333333337"/>
<line x1="233.09999999999997" y1="466.6666666666667" x2="266.4" y2="466.6666666666667"/>
<line x1="233.09999999999997" y1="500.00000000000006" x2="266.4" y2="500.00000000000006"/>
<line x1="266.4" y1="66.66666666666667" x2="299.7" y2="66.66666666666667"/>
<line x1="299.7" y1="33.333333333333336" x2="299.7" y2="66.66666666666667"/>
<line x1="299.7" y1="66.66666666666667" x2="299.7" y2="100.0"/>
<line x1="266.4" y1="133.33333333333334" x2="299.7" y2="133.33333333333334"/>
<line x1="299.7" y1="100.0" x2="299.7" y2="133.33333333333334"/>
<line x1="299.7" y1="133.33333333333334" x2="299.7" y2="166.66666666666669"/>
<line x1="266.4" y1="200.0" x2="299.7" y2="200.0"/>
<line x1="299.7" y1="200.0" x2="299.7" y2="233.33333333333334"/>
<line x1="299.7" y1="233.33333333333334" x2="299.7" y2="266.6666666666667"/>
<line x1="266.4" y1="300.0" x2="299.7" y2="300.0"/>
<line x1="299.7" y1="266.6666666666667" x2="299.7" y2="300.0"/>
<line x1="299.7" y1="333.33333333333337" x2="299.7" y2="366.6666666666667"/>
<line x1="266.4" y1="400.0" x2="299.7" y2="400.0"/>
<line x1="299.7" y1="366.6666666666667" x2="299.7" y2="400.0"/>
<line x1="266.4" y1="466.6666666666667" x2="299.7" y2="466.6666666666667"/>
<line x1="299.7" y1="433.33333333333337" x2="299.7" y2="466.6666666666667"/>
<line x1="266.4" y1="500.00000000000006" x2="299.7" y2="500.00000000000006"/>
<line x1="333.0" y1="0.0" x2="333.0" y2="33.333333333333336"/>
<line x1="299.7" y1="66.66666666666667" x2="333.0" y2="66.66666666666667"/>
<line x1="333.0" y1="100.0" x2="333.0" y2="133.33333333333334"/>
<line x1="299.7" y1="166.66666666666669" x2="333.0" y2="166.66666666666669"/>
<line x1="299.7" y1="200.0" x2="333.0" y2="200.0"/>
<line x1="299.7" y1="233.33333333333334" x2="333.0" y2="233.33333333333334"/>
<line x1="333.0" y1="266.6666666666667" x2="333.0" y2="300.0"/>
<line x1="299.7" y1="333.33333333333337" x2="333.0" y2="333.33333333333337"/>
<line x1="299.7" y1="366.6666666666667" x2="333.0" y2="366.6666666666667"/>
<line x1="299.7" y1="433.33333333333337" x2="333.0" y2="433.33333333333337"/>
<line x1="333.0" y1="400.0" x2="333.0" y2="433.33333333333337"/>
<line x1="333.0" y1="433.33333333333337" x2="333.0" y2="466.6666666666667"/>
<line x1="299.7" y1="500.00000000000006" x2="333.0" y2="500.00000000000006"/>
<line x1="333.0" y1="66.66666666666667" x2="366.29999999999995" y2="66.66666666666667"/>
<line x1="366.29999999999995" y1="33.333333333333336" x2="366.29999999999995" y2="66.66666666666667"/>
<line x1="366.29999999999995" y1="66.66666666666667" x2="366.29999999999995" y2="100.0"/>
<line x1="333.0" y1="133.33333333333334" x2="366.29999999999995" y2="133.33333333333334"/>
<line x1="366.29999999999995" y1="133.33333333333334" x2="366.29999999999995" y2="166.66666666666669"/>
<line x1="333.0" y1="200.0" x2="366.29999999999995" y2="200.0"/>
<line x1="366.29999999999995" y1="166.66666666666669" x2="366.29999999999995" y2="200.0"/>
<line x1="366.29999999999995" y1="200.0" x2="366.29999999999995" y2="233.33333333333334"/>
<line x1="333.0" y1="266.6666666666667" x2="366.29999999999995" y2="266.6666666666667"/>
<line x1="366.29999999999995" y1="233.33333333333334" x2="366.29999999999995" y2="266.6666666666667"/>
<line x1="333.0" y1="333.33333333333337" x2="366.29999999999995" y2="333.33333333333337"/>
<line x1="366.29999999999995" y1="300.0" x2="366.29999999999995" y2="333.33333333333337"/>
<line x1="333.0" y1="366.6666666666667" x2="366.29999999999995" y2="366.6666666666667"/>
<line x1="366.29999999999995" y1="366.6666666666667" x2="366.29999999999995" y2="400.0"/>
<line x1="366.29999999999995" y1="400.0" x2="366.29999999999995" y2="433.33333333333337"/>
<line x1="333.0" y1="466.6666666666667" x2="366.29999999999995" y2="466.6666666666667"/>
<line x1="333.0" y1="500.00000000000006" x2="366.29999999999995" y2="500.00000000000006"/>
<line x1="399.59999999999997" y1="33.333333333333336" x2="399.59999999999997" y2="66.66666666666667"/>
<line x1="366.29999999999995" y1="100.0" x2="399.59999999999997" y2="100.0"/>
<line x1="399.59999999999997" y1="100.0" x2="399.59999999999997" y2="133.33333333333334"/>
<line x1="366.29999999999995" y1="166.66666666666669" x2="399.59999999999997" y2="166.66666666666669"/>
<line x1="399.59999999999997" y1="233.33333333333334" x2="399.59999999999997" y2="266.6666666666667"/>
<line x1="366.29999999999995" y1="300.0" x2="399.59999999999997" y2="300.0"/>
<line x1="399.59999999999997" y1="266.6666666666667" x2="399.59999999999997" y2="300.0"/>
<line x1="399.59999999999997" y1="333.33333333333337" x2="399.59999999999997" y2="366.6666666666667"/>
<line x1="366.29999999999995" y1="400.0" x2="399.59999999999997" y2="400.0"/>
<line x1="366.29999999999995" y1="433.33333333333337" x2="399.59999999999997" y2="433.33333333333337"/>
<line x1="399.59999999999997" y1="433.33333333333337" x2="399.59999999999997" y2="466.6666666666667"/>
<line x1="366.29999999999995" y1="500.00000000000006" x2="399.59999999999997" y2="500.00000000000006"/>
<line x1="399.59999999999997" y1="66.66666666666667" x2="432.9" y2="66.66666666666667"/>
<line x1="432.9" y1="33.333333333333336" x2="432.9" y2="66.66666666666667"/>
<line x1="399.59999999999997" y1="100.0" x2="432.9" y2="100.0"/>
<line x1="399.59999999999997" y1="166.66666666666669" x2="432.9" y2="166.66666666666669"/>
<line x1="432.9" y1="133.33333333333334" x2="432.9" y2="166.66666666666669"/>
<line x1="399.59999999999997" y1="200.0" x2="432.9" y2="200.0"/>
<line x1="432.9" y1="166.66666666666669" x2="432.9" y2="200.0"/>
<line x1="399.59999999999997" y1="233.33333333333334" x2="432.9" y2="233.33333333333334"/>
<line x1="432.9" y1="233.33333333333334" x2="432.9" y2="266.6666666666667"/>
<line x1="399.59999999999997" y1="333.33333333333337" x2="432.9" y2="333.33333333333337"/>
<line x1="432.9" y1="333.33333333333337" x2="432.9" y2="366.6666666666667"/>
<line x1="399.59999999999997" y1="400.0" x2="432.9" y2="400.0"/>
<line x1="432.9" y1="400.0" x2="432.9" y2="433.33333333333337"/>
<line x1="399.59999999999997" y1="466.6666666666667" x2="432.9" y2="466.6666666666667"/>
<line x1="399.59999999999997" y1="500.00000000000006" x2="432.9" y2="500.00000000000006"/>
<line x1="432.9" y1="33.333333333333336" x2="466.19999999999993" y2="33.333333333333336"/>
<line x1="466.19999999999993" y1="0.0" x2="466.19999999999993" y2="33.333333333333336"/>
<line x1="432.9" y1="100.0" x2="466.19999999999993" y2="100.0"/>
<line x1="466.19999999999993" y1="66.66666666666667" x2="466.19999999999993" y2="100.0"/>
<line x1="466.19999999999993" y1="100.0" x2="466.19999999999993" y2="133.33333333333334"/>
<line x1="466.19999999999993" y1="133.33333333333334" x2="466.19999999999993" y2="166.66666666666669"/>
<line x1="432.9" y1="200.0" x2="466.19999999999993" y2="200.0"/>
<line x1="432.9" y1="266.6666666666667" x2="466.19999999999993" y2="266.6666666666667"/>
<line x1="432.9" y1="300.0" x2="466.19999999999993" y2="300.0"/>
<line x1="466.19999999999993" y1="266.6666666666667" x2="466.19999999999993" y2="300.0"/>
<line x1="432.9" y1="366.6666666666667" x2="466.19999999999993" y2="366.6666666666667"/>
<line x1="466.19999999999993" y1="366.6666666666667" x2="466.19999999999993" y2="400.0"/>
<line x1="466.19999999999993" y1="400.0" x2="466.19999999999993" y2="433.33333333333337"/>
<line x1="432.9" y1="466.6666666666667" x2="466.19999999999993" y2="466.6666666666667"/>
<line x1="432.9" y1="500.00000000000006" x2="466.19999999999993" y2="500.00000000000006"/>
<line x1="466.19999999999993" y1="66.66666666666667" x2="499.49999999999994" y2="66.66666666666667"/>
<line x1="499.49999999999994" y1="33.333333333333336" x2="499.49999999999994" y2="66.66666666666667"/>
<line x1="466.19999999999993" y1="166.66666666666669" x2="499.49999999999994" y2="166.66666666666669"/>
<line x1="466.19999999999993" y1="200.0" x2="499.49999999999994" y2="200.0"/>
<line x1="466.19999999999993" y1="233.33333333333334" x2="499.49999999999994" y2="233.33333333333334"/>
<line x1="499.49999999999994" y1="200.0" x2="499.49999999999994" y2="233.33333333333334"/>
<line x1="499.49999999999994" y1="233.33333333333334" x2="499.49999999999994" y2="266.6666666666667"/>
<line x1="466.19999999999993" y1="300.0" x2="499.49999999999994" y2="300.0"/>
<line x1="466.19999999999993" y1="333.33333333333337" x2="499.49999999999994" y2="333.33333333333337"/>
<line x1="499.49999999999994" y1="300.0" x2="499.49999999999994" y2="333.33333333333337"/>
<line x1="499.49999999999994" y1="333.33333333333337" x2="499.49999999999994" y2="366.6666666666667"/>
<line x1="499.49999999999994" y1="366.6666666666667" x2="499.49999999999994" y2="400.0"/>
<line x1="466.19999999999993" y1="433.33333333333337" x2="499.49999999999994" y2="433.33333333333337"/>
<line x1="466.19999999999993" y1="466.6666666666667" x2="499.49999999999994" y2="466.6666666666667"/>
<line x1="499.49999999999994" y1="433.33333333333337" x2="499.49999999999994" y2="466.6666666666667"/>
<line x1="466.19999999999993" y1="500.00000000000006" x2="499.49999999999994" y2="500.00000000000006"/>
<line x1="499.49999999999994" y1="33.333333333333336" x2="532.8" y2="33.333333333333336"/>
<line x1="499.49999999999994" y1="100.0" x2="532.8" y2="100.0"/>
<line x1="532.8" y1="66.66666666666667" x2="532.8" y2="100.0"/>
<line x1="499.49999999999994" y1="133.33333333333334" x2="532.8" y2="133.33333333333334"/>
<line x1="499.49999999999994" y1="166.66666666666669" x2="532.8" y2="166.66666666666669"/>
<line x1="499.49999999999994" y1="200.0" x2="532.8" y2="200.0"/>
<line x1="532.8" y1="233.33333333333334" x2="532.8" y2="266.6666666666667"/>
<line x1="499.49999999999994" y1="300.0" x2="532.8" y2="300.0"/>
<line x1="532.8" y1="266.6666666666667" x2="532.8" y2="300.0"/>
<line x1="532.8" y1="333.33333333333337" x2="532.8" y2="366.6666666666667"/>
<line x1="499.49999999999994" y1="400.0" x2="532.8" y2="400.0"/>
<line x1="532.8" y1="400.0" x2="532.8" y2="433.33333333333337"/>
<line x1="499.49999999999994" y1="466.6666666666667" x2="532.8" y2="466.6666666666667"/>
<line x1="499.49999999999994" y1="500.00000000000006" x2="532.8" y2="500.00000000000006"/>
<line x1="566.0999999999999" y1="0.0" x2="566.0999999999999" y2="33.333333333333336"/>
<line x1="566.0999999999999" y1="33.333333333333336" x2="566.0999999999999" y2="66.66666666666667"/>
<line x1="532.8" y1="100.0" x2="566.0999999999999" y2="100.0"/>
<line x1="566.0999999999999" y1="66.66666666666667" x2="566.0999999999999" y2="100.0"/>
<line x1="532.8" y1="133.33333333333334" x2="566.0999999999999" y2="133.33333333333334"/>
<line x1="532.8" y1="166.66666666666669" x2="566.0999999999999" y2="166.66666666666669"/>
<line x1="532.8" y1="200.0" x2="566.0999999999999" y2="200.0"/>
<line x1="566.0999999999999" y1="200.0" x2="566.0999999999999" y2="233.33333333333334"/>
<line x1="532.8" y1="266.6666666666667" x2="566.0999999999999" y2="266.6666666666667"/>
<line x1="566.0999999999999" y1="266.6666666666667" x2="566.0999999999999" y2="300.0"/>
<line x1="532.8" y1="333.33333333333337" x2="566.0999999999999" y2="333.33333333333337"/>
<line x1="532.8" y1="366.6666666666667" x2="566.0999999999999" y2="366.6666666666667"/>
<line x1="532.8" y1="400.0" x2="566.0999999999999" y2="400.0"/>
<line x1="532.8" y1="466.6666666666667" x2="566.0999999999999" y2="466.6666666666667"/>
<line x1="566.0999999999999" y1="433.33333333333337" x2="566.0999999999999" y2="466.6666666666667"/>
<line x1="532.8" y1="500.00000000000006" x2="566.0999999999999" y2="500.00000000000006"/>
<line x1="599.4" y1="33.333333333333336" x2="599.4" y2="66.66666666666667"/>
<line x1="599.4" y1="66.66666666666667" x2="599.4" y2="100.0"/>
<line x1="566.0999999999999" y1="133.33333333333334" x2="599.4" y2="133.33333333333334"/>
<line x1="599.4" y1="100.0" x2="599.4" y2="133.33333333333334"/>
<line x1="566.0999999999999" y1="166.66666666666669" x2="599.4" y2="166.66666666666669"/>
<line x1="599.4" y1="166.66666666666669" x2="599.4" y2="200.0"/>
<line x1="566.0999999999999" y1="233.33333333333334" x2="599.4" y2="233.33333333333334"/>
<line x1="566.0999999999999" y1="266.6666666666667" x2="599.4" y2="266.6666666666667"/>
<line x1="566.0999999999999" y1="333.33333333333337" x2="599.4" y2="333.33333333333337"/>
<line x1="599.4" y1="300.0" x2="599.4" y2="333.33333333333337"/>
<line x1="599.4" y1="333.33333333333337" x2="599.4" y2="366.6666666666667"/>
<line x1="599.4" y1="366.6666666666667" x2="599.4" y2="400.0"/>
<line x1="566.0999999999999" y1="433.33333333333337" x2="599.4" y2="433.33333333333337"/>
<line x1="566.0999999999999" y1="500.00000000000006" x2="599.4" y2="500.00000000000006"/>
<line x1="599.4" y1="466.6666666666667" x2="599.4" y2="500.00000000000006"/>
<line x1="632.6999999999999" y1="33.333333333333336" x2="632.6999999999999" y2="66.66666666666667"/>
<line x1="632.6999999999999" y1="66.66666666666667" x2="632.6999999999999" y2="100.0"/>
<line x1="599.4" y1="133.33333333333334" x2="632.6999999999999" y2="133.33333333333334"/>
<line x1="632.6999999999999" y1="133.33333333333334" x2="632.6999999999999" y2="166.66666666666669"/>
<line x1="599.4" y1="200.0" x2="632.6999999999999" y2="200.0"/>
<line x1="632.6999999999999" y1="166.66666666666669" x2="632.6999999999999" y2="200.0"/>
<line x1="632.6999999999999" y1="200.0" x2="632.6999999999999" y2="233.33333333333334"/>
<line x1="599.4" y1="266.6666666666667" x2="632.6999999999999" y2="266.6666666666667"/>
<line x1="632.6999999999999" y1="233.33333333333334" x2="632.6999999999999" y2="266.6666666666667"/>
<line x1="599.4" y1="333.33333333333337" x2="632.6999999999999" y2="333.33333333333337"/>
<line x1="599.4" y1="400.0" x2="632.6999999999999" y2="400.0"/>
<line x1="599.4" y1="433.33333333333337" x2="632.6999999999999" y2="433.33333333333337"/>
<line x1="632.6999999999999" y1="400.0" x2="632.6999999999999" y2="433.33333333333337"/>
<line x1="599.4" y1="466.6666666666667" x2="632.6999999999999" y2="466.6666666666667"/>
<line x1="599.4" y1="500.00000000000006" x2="632.6999999999999" y2="500.00000000000006"/>
<line x1="666.0" y1="0.0" x2="666.0" y2="33.333333333333336"/>
<line x1="666.0" y1="33.333333333333336" x2="666.0" y2="66.66666666666667"/>
<line x1="632.6999999999999" y1="100.0" x2="666.0" y2="100.0"/>
<line x1="666.0" y1="66.66666666666667" x2="666.0" y2="100.0"/>
<line x1="666.0" y1="100.0" x2="666.0" y2="133.33333333333334"/>
<line x1="666.0" y1="133.33333333333334" x2="666.0" y2="166.66666666666669"/>
<line x1="666.0" y1="166.66666666666669" x2="666.0" y2="200.0"/>
<line x1="666.0" y1="200.0" x2="666.0" y2="233.33333333333334"/>
<line x1="666.0" y1="233.33333333333334" x2="666.0" y2="266.6666666666667"/>
<line x1="632.6999999999999" y1="300.0" x2="666.0" y2="300.0"/>
<line x1="666.0" y1="266.6666666666667" x2="666.0" y2="300.0"/>
<line x1="666.0" y1="300.0" x2="666.0" y2="333.33333333333337"/>
<line x1="632.6999999999999" y1="366.6666666666667" x2="666.0" y2="366.6666666666667"/>
<line x1="666.0" y1="333.33333333333337" x2="666.0" y2="366.6666666666667"/>
<line x1="666.0" y1="366.6666666666667" x2="666.0" y2="400.0"/>
<line x1="666.0" y1="400.0" x2="666.0" y2="433.33333333333337"/>
<line x1="666.0" y1="433.33333333333337" x2="666.0" y2="466.6666666666667"/>
<line x1="632.6999999999999" y1="500.00000000000006" x2="666.0" y2="500.00000000000006"/>
<line x1="666.0" y1="466.6666666666667" x2="666.0" y2="500.00000000000006"/>
<line x1="0" y1="0" x2="666" y2="0"/>
<line x1="0" y1="0" x2="0" y2="500"/>
</svg>
